<svg width="16" height="18" viewBox="0 0 16 18" fill="none" xmlns="http://www.w3.org/2000/svg">
<path d="M1.77778 18C1.28889 18 0.87037 17.8238 0.522222 17.4713C0.174074 17.1187 0 16.695 0 16.2V3.6C0 3.105 0.174074 2.68125 0.522222 2.32875C0.87037 1.97625 1.28889 1.8 1.77778 1.8H5.51111C5.7037 1.26 6.02593 0.825 6.47778 0.495C6.92963 0.165 7.43704 0 8 0C8.56296 0 9.07037 0.165 9.52222 0.495C9.97407 0.825 10.2963 1.26 10.4889 1.8H14.2222C14.7111 1.8 15.1296 1.97625 15.4778 2.32875C15.8259 2.68125 16 3.105 16 3.6V16.2C16 16.695 15.8259 17.1187 15.4778 17.4713C15.1296 17.8238 14.7111 18 14.2222 18H1.77778ZM1.77778 16.2H14.2222V3.6H1.77778V16.2ZM3.55556 13.5C3.55556 13.9971 3.9585 14.4 4.45556 14.4H8.87778C9.37484 14.4 9.77778 13.9971 9.77778 13.5C9.77778 13.0029 9.37483 12.6 8.87778 12.6H4.45555C3.9585 12.6 3.55556 13.0029 3.55556 13.5ZM3.55556 9.9C3.55556 10.3971 3.9585 10.8 4.45556 10.8H11.5444C12.0415 10.8 12.4444 10.3971 12.4444 9.9C12.4444 9.40294 12.0415 9 11.5444 9H4.45556C3.9585 9 3.55556 9.40294 3.55556 9.9ZM3.55556 6.3C3.55556 6.79706 3.9585 7.2 4.45556 7.2H11.5444C12.0415 7.2 12.4444 6.79706 12.4444 6.3C12.4444 5.80294 12.0415 5.4 11.5444 5.4H4.45556C3.9585 5.4 3.55556 5.80294 3.55556 6.3ZM8 2.925C8.19259 2.925 8.35185 2.86125 8.47778 2.73375C8.6037 2.60625 8.66667 2.445 8.66667 2.25C8.66667 2.055 8.6037 1.89375 8.47778 1.76625C8.35185 1.63875 8.19259 1.575 8 1.575C7.80741 1.575 7.64815 1.63875 7.52222 1.76625C7.3963 1.89375 7.33333 2.055 7.33333 2.25C7.33333 2.445 7.3963 2.60625 7.52222 2.73375C7.64815 2.86125 7.80741 2.925 8 2.925Z" fill="#70677B"/>
</svg>
