<svg width="21" height="18" viewBox="0 0 21 18" fill="none" xmlns="http://www.w3.org/2000/svg">
<path d="M10.436 17.6707C10.1373 17.8328 9.77682 17.8328 9.47811 17.6707L3.45469 14.4008C3.13119 14.2252 2.92974 13.8866 2.92974 13.5185V8.09243L0.520109 6.76713C-0.174746 6.38496 -0.173 5.38591 0.523188 5.00617L9.47634 0.122631C9.77598 -0.0408106 10.1381 -0.0408106 10.4378 0.122631L20.4768 5.59847C20.7993 5.77438 21 6.11242 21 6.47979V13.9151H18.9922V6.98813L16.9844 8.09243V13.5185C16.9844 13.8866 16.7829 14.2252 16.4594 14.4008L10.436 17.6707ZM9.95706 9.59828L16.8338 5.88384L9.95706 2.1694L3.08033 5.88384L9.95706 9.59828ZM9.48006 15.3892C9.77775 15.55 10.1364 15.55 10.4341 15.3892L14.9766 12.9363V9.14652L10.4409 11.6412C10.1396 11.8069 9.77452 11.8069 9.47326 11.6412L4.93755 9.14652V12.3374C4.93755 12.7063 5.13986 13.0455 5.46445 13.2208L9.48006 15.3892Z" fill="#70677B"/>
</svg>
